{
	"asset":{
		"version":"2.0",
		"generator":"Created using the official Cinema 4D glTF Exporter 1.000x290161"
	},
	"meshes":[{
		"primitives":[{
			"attributes":{
				"POSITION":7,
				"NORMAL":8,
				"TEXCOORD_0":9,
				"JOINTS_0":10,
				"WEIGHTS_0":11
			},
			"indices":6,
			"material":0
		}]
	}],
	"scenes":[{
		"nodes":[0,
		19,
		21]
	}],
	"nodes":[{
		"name":"Armature",
		"translation":[0.0,
		0.0,
		0.0],
		"rotation":[-8.146035668232799e-8,
		0.0,
		0.0,
		-1.0],
		"scale":[0.10000000149011612,
		0.10000000149011612,
		0.10000000149011612],
		"children":[1,
		15,
		17]
	},
	{
		"name":"MarineHub002",
		"translation":[-5.552802562713623,
		11.3342866897583,
		-2.69970440864563],
		"rotation":[0.5000001192092896,
		0.5,
		0.49999991059303286,
		0.4999999701976776],
		"scale":[1.0,
		0.9999999403953552,
		1.0],
		"children":[2,
		6,
		11]
	},
	{
		"name":"MarineLLeg1",
		"translation":[0.000008827928468235769,
		-0.0000013628899750983692,
		6.010738849639893],
		"rotation":[0.0546274334192276,
		-0.98909592628479,
		0.043674856424331668,
		-0.12960557639598847],
		"scale":[1.0,
		1.0,
		0.9999998211860657],
		"children":[3]
	},
	{
		"name":"MarineLLeg2",
		"translation":[5.8344292640686039,
		7.227063179016113e-7,
		0.0000028759241104125978],
		"rotation":[-0.14172309637069703,
		0.23694340884685517,
		0.13279980421066285,
		0.9519121050834656],
		"scale":[0.9999993443489075,
		1.0,
		1.0000001192092896],
		"children":[4]
	},
	{
		"name":"MarineLLegAnkle",
		"translation":[4.790527820587158,
		-7.078051567077637e-7,
		0.0000011026859283447266],
		"rotation":[0.005478302016854286,
		0.1526452749967575,
		-0.6384254693984985,
		-0.7543754577636719],
		"scale":[0.9999994039535523,
		1.0000008344650269,
		1.000000238418579],
		"children":[5]
	},
	{
		"name":"MarineLLegAnkle_end",
		"translation":[7.970378987920412e-7,
		4.790527820587158,
		0.000024922042939579116],
		"rotation":[0.0,
		-4.440892098500626e-16,
		0.0,
		-1.0],
		"scale":[1.0,
		1.0,
		1.0]
	},
	{
		"name":"MarineSpine1",
		"translation":[4.511520862579346,
		-12.456518173217774,
		0.6461225152015686],
		"rotation":[0.008583608083426953,
		-0.0005063189892098308,
		-0.5687082409858704,
		-0.822494387626648],
		"scale":[1.0000001192092896,
		1.0000001192092896,
		1.0],
		"children":[7]
	},
	{
		"name":"MarineSpine2",
		"translation":[19.325363159179689,
		6.92903995513916e-7,
		6.332993507385254e-8],
		"rotation":[0.00039937705150805414,
		-0.004334652330726385,
		0.46291470527648928,
		-0.8863921165466309],
		"scale":[1.0,
		1.0,
		0.9999999403953552],
		"children":[8]
	},
	{
		"name":"MarineSpine3",
		"translation":[4.806146144866943,
		4.842877388000488e-7,
		-3.129243850708008e-7],
		"rotation":[0.008661708794534207,
		-0.005045111291110516,
		-0.10886424034833908,
		0.9940060973167419],
		"scale":[1.0,
		1.0000001192092896,
		0.9999998807907105],
		"children":[9]
	},
	{
		"name":"MarineHub003",
		"translation":[12.493900299072266,
		-0.0000028098002076148988,
		-0.0000014808028936386109],
		"rotation":[-0.0013310479698702694,
		-0.005282419268041849,
		0.014307023957371712,
		-0.9998828172683716],
		"scale":[0.9999999403953552,
		1.0,
		1.0],
		"children":[10]
	},
	{
		"name":"MarineHub003_end",
		"translation":[-8.269610418665252e-8,
		12.493902206420899,
		-9.091007058259493e-8],
		"rotation":[0.0,
		0.0,
		0.0,
		-1.0],
		"scale":[1.0,
		1.0,
		1.0]
	},
	{
		"name":"MarineRLeg1",
		"translation":[0.000004544219336821698,
		-9.700365808384959e-7,
		-6.010740756988525],
		"rotation":[0.05546955019235611,
		-0.9889975190162659,
		-0.04376167804002762,
		0.12996894121170045],
		"scale":[0.9999999403953552,
		0.9999996423721314,
		1.0000004768371583],
		"children":[12]
	},
	{
		"name":"MarineRLeg2",
		"translation":[5.8344292640686039,
		0.0000013041495776633383,
		-0.0000025403498966625195],
		"rotation":[-0.131521537899971,
		0.12911775708198548,
		-0.129065603017807,
		-0.9743576049804688],
		"scale":[1.0000020265579224,
		1.000000238418579,
		0.9999979734420776],
		"children":[13]
	},
	{
		"name":"MarineRLegAnkle",
		"translation":[4.657835960388184,
		0.000001509785647613171,
		-0.0000018832080286301789],
		"rotation":[-0.06735606491565705,
		0.06964997202157974,
		0.650355875492096,
		0.7534250020980835],
		"scale":[1.0000019073486329,
		0.999998152256012,
		1.0],
		"children":[14]
	},
	{
		"name":"MarineRLegAnkle_end",
		"translation":[-0.0000022887898012413645,
		4.6578369140625,
		0.0002146327606169507],
		"rotation":[0.0,
		0.0,
		0.0,
		-1.0],
		"scale":[1.0,
		1.0,
		1.0]
	},
	{
		"name":"MarineLLegPlatform",
		"translation":[-1.5440387725830079,
		-4.1391442096028188e-7,
		-1.6182060241699219],
		"rotation":[0.5000001192092896,
		0.4999999701976776,
		0.49999991059303286,
		0.5000000596046448],
		"scale":[1.0,
		1.0,
		1.0],
		"children":[16]
	},
	{
		"name":"MarineLLegPlatform_end",
		"translation":[1.0007906030046372e-16,
		1.0,
		2.220446049250313e-16],
		"rotation":[0.0,
		-1.6543612251060554e-23,
		0.0,
		-1.0],
		"scale":[1.0,
		1.0,
		1.0]
	},
	{
		"name":"MarineRLegPlatform",
		"translation":[-9.561567306518555,
		-4.13914563068829e-7,
		-1.6182045936584473],
		"rotation":[0.5000001788139343,
		0.4999999701976776,
		0.4999998211860657,
		0.5000000596046448],
		"scale":[1.0,
		1.0,
		1.0],
		"children":[18]
	},
	{
		"name":"MarineRLegPlatform_end",
		"translation":[4.45742618163103e-17,
		1.0,
		-1.7763568394002506e-15],
		"rotation":[1.3234889800848444e-23,
		0.0,
		0.0,
		-1.0],
		"scale":[1.0,
		1.0,
		1.0]
	},
	{
		"name":"Duck",
		"translation":[-0.49446946382522585,
		0.2222217321395874,
		-0.2531146705150604],
		"rotation":[-0.5000000596046448,
		0.4999999403953552,
		0.4999999403953552,
		0.5000000596046448],
		"scale":[0.10000000149011612,
		0.09999999403953552,
		0.10000000149011612],
		"children":[20]
	},
	{
		"name":"Duck",
		"mesh":0,
		"skin":0
	},
	{
		"name":"Camera",
		"translation":[748.1131591796875,
		534.3665161132813,
		650.7639770507813],
		"rotation":[0.20997296273708344,
		-0.3857799470424652,
		-0.09062839299440384,
		-0.8937962055206299],
		"scale":[1.0,
		1.0,
		1.0],
		"camera":0
	}],
	"cameras":[{
		"type":"perspective",
		"perspective":{
			"znear":0.009999999776482582,
			"zfar":10000000000.0,
			"aspectRatio":1.7777777910232545,
			"yfov":0.5033799409866333
		}
	}],
	"skins":[{
		"inverseBindMatrices":18,
		"joints":[1,
		2,
		3,
		4,
		6,
		7,
		8,
		9,
		11,
		12,
		13,
		15,
		17]
	}],
	"accessors":[{
		"bufferView":0,
		"type":"SCALAR",
		"componentType":5126,
		"count":26,
		"min":[0.0],
		"byteOffset":0,
		"max":[0.8333333134651184]
	},
	{
		"bufferView":0,
		"type":"VEC3",
		"componentType":5126,
		"count":26,
		"min":[0.0,
		0.0,
		0.0],
		"byteOffset":104,
		"max":[0.0,
		0.0,
		0.0]
	},
	{
		"bufferView":1,
		"type":"SCALAR",
		"componentType":5126,
		"count":26,
		"min":[0.0],
		"byteOffset":0,
		"max":[0.8333333134651184]
	},
	{
		"bufferView":1,
		"type":"VEC4",
		"componentType":5126,
		"count":26,
		"min":[-8.146035668232799e-8,
		0.0,
		0.0,
		-1.0],
		"byteOffset":104,
		"max":[-8.146035668232799e-8,
		0.0,
		0.0,
		-1.0]
	},
	{
		"bufferView":2,
		"type":"SCALAR",
		"componentType":5126,
		"count":26,
		"min":[0.0],
		"byteOffset":0,
		"max":[0.8333333134651184]
	},
	{
		"bufferView":2,
		"type":"VEC3",
		"componentType":5126,
		"count":26,
		"min":[0.10000000149011612,
		0.10000000149011612,
		0.10000000149011612],
		"byteOffset":104,
		"max":[0.10000000149011612,
		0.10000000149011612,
		0.10000000149011612]
	},
	{
		"bufferView":3,
		"type":"SCALAR",
		"componentType":5123,
		"count":1416,
		"min":[0],
		"byteOffset":0,
		"max":[1389]
	},
	{
		"bufferView":4,
		"type":"VEC3",
		"componentType":5126,
		"count":1390,
		"min":[-14.477812767028809,
		-11.122066497802735,
		-2.3020427227020265],
		"byteOffset":0,
		"max":[19.634742736816408,
		11.123725891113282,
		41.95276641845703]
	},
	{
		"bufferView":4,
		"type":"VEC3",
		"componentType":5126,
		"count":1390,
		"min":[-0.9999990463256836,
		-0.9999812245368958,
		-0.999558687210083],
		"byteOffset":12,
		"max":[0.9934465885162354,
		0.9998432993888855,
		0.9984428882598877]
	},
	{
		"bufferView":4,
		"type":"VEC2",
		"componentType":5126,
		"count":1390,
		"min":[0.0,
		0.0],
		"byteOffset":24,
		"max":[1.0,
		1.0]
	},
	{
		"bufferView":5,
		"type":"VEC4",
		"componentType":5123,
		"count":1390,
		"min":[0,
		0,
		0,
		0],
		"byteOffset":0,
		"max":[10,
		10,
		10,
		10]
	},
	{
		"bufferView":6,
		"type":"VEC4",
		"componentType":5126,
		"count":1390,
		"min":[0.27898070216178896,
		0.0,
		0.0,
		0.0],
		"byteOffset":0,
		"max":[1.0,
		0.49840542674064639,
		0.286289781332016,
		0.18629740178585053]
	},
	{
		"bufferView":7,
		"type":"SCALAR",
		"componentType":5126,
		"count":26,
		"min":[0.0],
		"byteOffset":0,
		"max":[0.8333333134651184]
	},
	{
		"bufferView":7,
		"type":"VEC3",
		"componentType":5126,
		"count":26,
		"min":[748.1131591796875,
		534.3665161132813,
		650.7639770507813],
		"byteOffset":104,
		"max":[748.1131591796875,
		534.3665161132813,
		650.7639770507813]
	},
	{
		"bufferView":8,
		"type":"SCALAR",
		"componentType":5126,
		"count":26,
		"min":[0.0],
		"byteOffset":0,
		"max":[0.8333333134651184]
	},
	{
		"bufferView":8,
		"type":"VEC4",
		"componentType":5126,
		"count":26,
		"min":[0.20997296273708344,
		-0.3857799470424652,
		-0.09062839299440384,
		-0.8937962055206299],
		"byteOffset":104,
		"max":[0.20997296273708344,
		-0.3857799470424652,
		-0.09062839299440384,
		-0.8937962055206299]
	},
	{
		"bufferView":9,
		"type":"SCALAR",
		"componentType":5126,
		"count":26,
		"min":[0.0],
		"byteOffset":0,
		"max":[0.8333333134651184]
	},
	{
		"bufferView":9,
		"type":"VEC3",
		"componentType":5126,
		"count":26,
		"min":[1.0,
		1.0,
		1.0],
		"byteOffset":104,
		"max":[1.0,
		1.0,
		1.0]
	},
	{
		"bufferView":10,
		"type":"MAT4",
		"componentType":5126,
		"count":13,
		"min":[-0.9997667670249939,
		-1.0,
		-0.21890832483768464,
		0.0,
		-0.25222286581993105,
		-0.18668688833713532,
		-1.0000001192092896,
		0.0,
		-0.9922568798065186,
		-0.9355273246765137,
		-0.26193249225616457,
		0.0,
		-37.60019302368164,
		-6.972886085510254,
		-5.228586196899414,
		1.0],
		"byteOffset":0,
		"max":[0.12109412997961045,
		-0.02160603739321232,
		0.19313661754131318,
		0.0,
		0.25161316990852358,
		0.1924634724855423,
		1.000001311302185,
		0.0,
		1.0,
		0.9997664093971252,
		0.26115652918815615,
		0.0,
		10.397175788879395,
		17.20233726501465,
		5.071416854858398,
		1.0]
	}],
	"bufferViews":[{
		"buffer":0,
		"byteOffset":0,
		"byteLength":416
	},
	{
		"buffer":0,
		"byteOffset":416,
		"byteLength":520
	},
	{
		"buffer":0,
		"byteOffset":936,
		"byteLength":416
	},
	{
		"buffer":1,
		"byteOffset":0,
		"byteLength":2832,
		"target":34963
	},
	{
		"buffer":1,
		"byteOffset":2832,
		"byteLength":44480,
		"target":34962,
		"byteStride":32
	},
	{
		"buffer":1,
		"byteOffset":47312,
		"byteLength":11120,
		"target":34962
	},
	{
		"buffer":1,
		"byteOffset":58432,
		"byteLength":22240,
		"target":34962
	},
	{
		"buffer":2,
		"byteOffset":0,
		"byteLength":416
	},
	{
		"buffer":2,
		"byteOffset":416,
		"byteLength":520
	},
	{
		"buffer":2,
		"byteOffset":936,
		"byteLength":416
	},
	{
		"buffer":3,
		"byteOffset":0,
		"byteLength":832
	}],
	"buffers":[{
		"uri":"data:application/octet-stream;base64,",
		"byteLength":1352
	},
	{
		"uri":"data:application/octet-stream;base64,",
		"byteLength":80672
	},
	{
		"uri":"data:application/octet-stream;base64,",
		"byteLength":1352
	},
	{
		"uri":"data:application/octet-stream;base64,",
		"byteLength":832
	}],
	"materials":[{
		"pbrMetallicRoughness":{
			"baseColorFactor":[0.774902021510929,
			0.774902021510929,
			0.774902021510929,
			1.0],
			"metallicFactor":1.0,
			"roughnessFactor":1.0
		},
		"emissiveFactor":[0.0,
		0.0,
		0.0],
		"alphaMode":"OPAQUE",
		"doubleSided":false,
		"name":"Material #88"
	}],
	"animations":[{
		"samplers":[{
			"input":0,
			"interpolation":"LINEAR",
			"output":1
		},
		{
			"input":2,
			"interpolation":"LINEAR",
			"output":3
		},
		{
			"input":4,
			"interpolation":"LINEAR",
			"output":5
		},
		{
			"input":12,
			"interpolation":"LINEAR",
			"output":13
		},
		{
			"input":14,
			"interpolation":"LINEAR",
			"output":15
		},
		{
			"input":16,
			"interpolation":"LINEAR",
			"output":17
		}],
		"channels":[{
			"sampler":0,
			"target":{
				"node":0,
				"path":"translation"
			}
		},
		{
			"sampler":1,
			"target":{
				"node":0,
				"path":"rotation"
			}
		},
		{
			"sampler":2,
			"target":{
				"node":0,
				"path":"scale"
			}
		},
		{
			"sampler":3,
			"target":{
				"node":21,
				"path":"translation"
			}
		},
		{
			"sampler":4,
			"target":{
				"node":21,
				"path":"rotation"
			}
		},
		{
			"sampler":5,
			"target":{
				"node":21,
				"path":"scale"
			}
		}]
	}]
}