{
	"asset":{
		"version":"2.0",
		"generator":"Created using the official Cinema 4D glTF Exporter 1.000x290161"
	},
	"meshes":[{
		"primitives":[{
			"attributes":{
				"POSITION":1,
				"NORMAL":2,
				"TEXCOORD_0":3
			},
			"indices":0,
			"material":0
		}]
	}],
	"scenes":[{
		"nodes":[0]
	}],
	"nodes":[{
		"name":"12249_Bird_v1",
		"translation":[0.0,
		0.0,
		0.0],
		"mesh":0,
		"rotation":[0.7112839818000794,
		-5.130807469210364e-19,
		5.130807469210364e-19,
		-0.7029047608375549],
		"scale":[1.0,
		1.0,
		1.0]
	}],
	"accessors":[{
		"bufferView":0,
		"type":"SCALAR",
		"componentType":5123,
		"count":53568,
		"min":[0],
		"byteOffset":0,
		"max":[9759]
	},
	{
		"bufferView":1,
		"type":"VEC3",
		"componentType":5126,
		"count":9760,
		"min":[-14.037199974060059,
		-22.525400161743165,
		-0.04580000042915344],
		"byteOffset":0,
		"max":[14.037199974060059,
		30.744199752807618,
		54.7151985168457]
	},
	{
		"bufferView":1,
		"type":"VEC3",
		"componentType":5126,
		"count":9760,
		"min":[-0.9999063014984131,
		-0.9999063014984131,
		-0.9999688267707825],
		"byteOffset":12,
		"max":[0.9999063014984131,
		0.9992188215255737,
		0.9998750686645508]
	},
	{
		"bufferView":1,
		"type":"VEC2",
		"componentType":5126,
		"count":9760,
		"min":[0.008700000122189522,
		0.011900000274181366],
		"byteOffset":24,
		"max":[0.989799976348877,
		0.9921000003814697]
	}],
	"bufferViews":[{
		"buffer":0,
		"byteOffset":0,
		"byteLength":107136,
		"target":34963
	},
	{
		"buffer":0,
		"byteOffset":107136,
		"byteLength":312320,
		"target":34962,
		"byteStride":32
	}],
	"buffers":[{
		"uri":"data:application/octet-stream;base64,",
		"byteLength":419456
	}],
	"images":[{
		"uri":"data:image/jpeg;base64,"
	}],
	"samplers":[{
		"magFilter":9729,
		"minFilter":9729,
		"wrapS":10497,
		"wrapT":10497
	}],
	"textures":[{
		"sampler":0,
		"source":0
	}],
	"materials":[{
		"pbrMetallicRoughness":{
			"baseColorTexture":{
				"index":0
			},
			"baseColorFactor":[1.0,
			1.0,
			1.0,
			0.0],
			"metallicFactor":1.0,
			"roughnessFactor":0.8299999833106995
		},
		"emissiveFactor":[0.0,
		0.0,
		0.0],
		"alphaMode":"BLEND",
		"doubleSided":false,
		"name":"12249_Bird_v1"
	}]
}